<svg xmlns="http://www.w3.org/2000/svg" viewBox="0 0 860 248" width="100%" font-family="ui-monospace, SFMono-Regular, Menlo, Consolas, monospace">

<defs>
<radialGradient id="rglow" cx="50%" cy="-8%" r="72%">
<stop offset="0" stop-color="#f5c518" stop-opacity="0.14"></stop>
<stop offset="0.6" stop-color="#f5c518" stop-opacity="0"></stop></radialGradient>
<pattern id="scan" width="880" height="22" patternUnits="userSpaceOnUse">
<rect width="880" height="1" y="21" fill="#f5c518" opacity="0.035"></rect></pattern>
<filter id="tg" x="-40%" y="-40%" width="180%" height="180%">
<feGaussianBlur stdDeviation="5" result="b"></feGaussianBlur>
<feMerge><feMergeNode in="b"></feMergeNode><feMergeNode in="SourceGraphic"></feMergeNode></feMerge></filter>
<linearGradient id="fade" x1="0" y1="0" x2="1" y2="0">
<stop offset="0" stop-color="#f5c518" stop-opacity="0.5"></stop>
<stop offset="1" stop-color="#f5c518" stop-opacity="0"></stop></linearGradient>
</defs>
<text x="0" y="20" font-size="12" font-weight="600" letter-spacing="2.6" fill="#f5c518">// TECH STACK</text>
<rect x="118" y="14" width="742" height="1.5" fill="url(#fade)"></rect>
<text x="0" y="41" font-size="10.5" font-weight="600" letter-spacing="1" fill="#6e7681">LANGUAGES</text>
<g transform="translate(0,56)">
<rect width="77" height="30" rx="7" fill="#010409" stroke="#f5c518" stroke-opacity="0.22"></rect>
<circle cx="18" cy="15" r="5" fill="#f5c518" opacity="0.32"></circle>
<circle cx="18" cy="15" r="3" fill="#f5c518"></circle>
<text x="30" y="19.5" font-size="12" font-weight="500" fill="#c9d1d9">Python</text></g>
<g transform="translate(85,56)">
<rect width="101" height="30" rx="7" fill="#010409" stroke="#f5c518" stroke-opacity="0.22"></rect>
<circle cx="18" cy="15" r="5" fill="#f5c518" opacity="0.32"></circle>
<circle cx="18" cy="15" r="3" fill="#f5c518"></circle>
<text x="30" y="19.5" font-size="12" font-weight="500" fill="#c9d1d9">TypeScript</text></g>
<g transform="translate(194,56)">
<rect width="101" height="30" rx="7" fill="#010409" stroke="#f5c518" stroke-opacity="0.22"></rect>
<circle cx="18" cy="15" r="5" fill="#f5c518" opacity="0.32"></circle>
<circle cx="18" cy="15" r="3" fill="#f5c518"></circle>
<text x="30" y="19.5" font-size="12" font-weight="500" fill="#c9d1d9">JavaScript</text></g>
<g transform="translate(303,56)">
<rect width="53" height="30" rx="7" fill="#010409" stroke="#f5c518" stroke-opacity="0.22"></rect>
<circle cx="18" cy="15" r="5" fill="#f5c518" opacity="0.32"></circle>
<circle cx="18" cy="15" r="3" fill="#f5c518"></circle>
<text x="30" y="19.5" font-size="12" font-weight="500" fill="#c9d1d9">Go</text></g>
<g transform="translate(364,56)">
<rect width="47" height="30" rx="7" fill="#010409" stroke="#f5c518" stroke-opacity="0.22"></rect>
<circle cx="18" cy="15" r="5" fill="#f5c518" opacity="0.32"></circle>
<circle cx="18" cy="15" r="3" fill="#f5c518"></circle>
<text x="30" y="19.5" font-size="12" font-weight="500" fill="#c9d1d9">C</text></g>
<g transform="translate(419,56)">
<rect width="59" height="30" rx="7" fill="#010409" stroke="#f5c518" stroke-opacity="0.22"></rect>
<circle cx="18" cy="15" r="5" fill="#f5c518" opacity="0.32"></circle>
<circle cx="18" cy="15" r="3" fill="#f5c518"></circle>
<text x="30" y="19.5" font-size="12" font-weight="500" fill="#c9d1d9">C++</text></g>
<g transform="translate(486,56)">
<rect width="53" height="30" rx="7" fill="#010409" stroke="#f5c518" stroke-opacity="0.22"></rect>
<circle cx="18" cy="15" r="5" fill="#f5c518" opacity="0.32"></circle>
<circle cx="18" cy="15" r="3" fill="#f5c518"></circle>
<text x="30" y="19.5" font-size="12" font-weight="500" fill="#c9d1d9">C#</text></g>
<g transform="translate(547,56)">
<rect width="77" height="30" rx="7" fill="#010409" stroke="#f5c518" stroke-opacity="0.22"></rect>
<circle cx="18" cy="15" r="5" fill="#f5c518" opacity="0.32"></circle>
<circle cx="18" cy="15" r="3" fill="#f5c518"></circle>
<text x="30" y="19.5" font-size="12" font-weight="500" fill="#c9d1d9">Kotlin</text></g>
<text x="0" y="117" font-size="10.5" font-weight="600" letter-spacing="1" fill="#6e7681">INFRA · DB</text>
<g transform="translate(0,132)">
<rect width="77" height="30" rx="7" fill="#010409" stroke="#f5c518" stroke-opacity="0.22"></rect>
<circle cx="18" cy="15" r="5" fill="#f5c518" opacity="0.32"></circle>
<circle cx="18" cy="15" r="3" fill="#f5c518"></circle>
<text x="30" y="19.5" font-size="12" font-weight="500" fill="#c9d1d9">Docker</text></g>
<g transform="translate(85,132)">
<rect width="101" height="30" rx="7" fill="#010409" stroke="#f5c518" stroke-opacity="0.22"></rect>
<circle cx="18" cy="15" r="5" fill="#f5c518" opacity="0.32"></circle>
<circle cx="18" cy="15" r="3" fill="#f5c518"></circle>
<text x="30" y="19.5" font-size="12" font-weight="500" fill="#c9d1d9">PostgreSQL</text></g>
<g transform="translate(194,132)">
<rect width="71" height="30" rx="7" fill="#010409" stroke="#f5c518" stroke-opacity="0.22"></rect>
<circle cx="18" cy="15" r="5" fill="#f5c518" opacity="0.32"></circle>
<circle cx="18" cy="15" r="3" fill="#f5c518"></circle>
<text x="30" y="19.5" font-size="12" font-weight="500" fill="#c9d1d9">MySQL</text></g>
<g transform="translate(273,132)">
<rect width="71" height="30" rx="7" fill="#010409" stroke="#f5c518" stroke-opacity="0.22"></rect>
<circle cx="18" cy="15" r="5" fill="#f5c518" opacity="0.32"></circle>
<circle cx="18" cy="15" r="3" fill="#f5c518"></circle>
<text x="30" y="19.5" font-size="12" font-weight="500" fill="#c9d1d9">Redis</text></g>
<text x="0" y="193" font-size="10.5" font-weight="600" letter-spacing="1" fill="#6e7681">SECURITY</text>
<g transform="translate(0,208)">
<rect width="101" height="30" rx="7" fill="#010409" stroke="#f5c518" stroke-opacity="0.22"></rect>
<circle cx="18" cy="15" r="5" fill="#c9a227" opacity="0.32"></circle>
<circle cx="18" cy="15" r="3" fill="#c9a227"></circle>
<text x="30" y="19.5" font-size="12" font-weight="500" fill="#c9d1d9">Burp Suite</text></g>
<g transform="translate(109,208)">
<rect width="83" height="30" rx="7" fill="#010409" stroke="#f5c518" stroke-opacity="0.22"></rect>
<circle cx="18" cy="15" r="5" fill="#c9a227" opacity="0.32"></circle>
<circle cx="18" cy="15" r="3" fill="#c9a227"></circle>
<text x="30" y="19.5" font-size="12" font-weight="500" fill="#c9d1d9">IDA Pro</text></g>
<g transform="translate(200,208)">
<rect width="77" height="30" rx="7" fill="#010409" stroke="#f5c518" stroke-opacity="0.22"></rect>
<circle cx="18" cy="15" r="5" fill="#c9a227" opacity="0.32"></circle>
<circle cx="18" cy="15" r="3" fill="#c9a227"></circle>
<text x="30" y="19.5" font-size="12" font-weight="500" fill="#c9d1d9">Ghidra</text></g>
<g transform="translate(285,208)">
<rect width="71" height="30" rx="7" fill="#010409" stroke="#f5c518" stroke-opacity="0.22"></rect>
<circle cx="18" cy="15" r="5" fill="#c9a227" opacity="0.32"></circle>
<circle cx="18" cy="15" r="3" fill="#c9a227"></circle>
<text x="30" y="19.5" font-size="12" font-weight="500" fill="#c9d1d9">Frida</text></g>
<g transform="translate(364,208)">
<rect width="95" height="30" rx="7" fill="#010409" stroke="#f5c518" stroke-opacity="0.22"></rect>
<circle cx="18" cy="15" r="5" fill="#c9a227" opacity="0.32"></circle>
<circle cx="18" cy="15" r="3" fill="#c9a227"></circle>
<text x="30" y="19.5" font-size="12" font-weight="500" fill="#c9d1d9">Wireshark</text></g>
<g transform="translate(467,208)">
<rect width="71" height="30" rx="7" fill="#010409" stroke="#f5c518" stroke-opacity="0.22"></rect>
<circle cx="18" cy="15" r="5" fill="#c9a227" opacity="0.32"></circle>
<circle cx="18" cy="15" r="3" fill="#c9a227"></circle>
<text x="30" y="19.5" font-size="12" font-weight="500" fill="#c9d1d9">Linux</text></g>

</svg>