<svg xmlns="http://www.w3.org/2000/svg" viewBox="0 0 860 226" width="100%" font-family="ui-monospace, SFMono-Regular, Menlo, Consolas, monospace">

<defs>
<radialGradient id="rglow" cx="50%" cy="-8%" r="72%">
<stop offset="0" stop-color="#f5c518" stop-opacity="0.14"></stop>
<stop offset="0.6" stop-color="#f5c518" stop-opacity="0"></stop></radialGradient>
<pattern id="scan" width="880" height="22" patternUnits="userSpaceOnUse">
<rect width="880" height="1" y="21" fill="#f5c518" opacity="0.035"></rect></pattern>
<filter id="tg" x="-40%" y="-40%" width="180%" height="180%">
<feGaussianBlur stdDeviation="5" result="b"></feGaussianBlur>
<feMerge><feMergeNode in="b"></feMergeNode><feMergeNode in="SourceGraphic"></feMergeNode></feMerge></filter>
<linearGradient id="fade" x1="0" y1="0" x2="1" y2="0">
<stop offset="0" stop-color="#f5c518" stop-opacity="0.5"></stop>
<stop offset="1" stop-color="#f5c518" stop-opacity="0"></stop></linearGradient>
</defs>
<text x="0" y="20" font-size="12" font-weight="600" letter-spacing="2.6" fill="#f5c518">// WHOAMI</text>
<rect x="112" y="14" width="748" height="1.5" fill="url(#fade)"></rect>
<rect x="0.5" y="42.5" width="859" height="183" rx="11" fill="#010409" stroke="#21262d"></rect>
<circle cx="20" cy="60" r="4.5" fill="#f5c518"></circle>
<circle cx="36" cy="60" r="4.5" fill="#30363d"></circle>
<circle cx="52" cy="60" r="4.5" fill="#30363d"></circle>
<text x="72" y="64" font-size="11.5" font-weight="500" fill="#6e7681">array@kr: ~</text>
<line x1="0" y1="78" x2="860" y2="78" stroke="#21262d"></line>
<text x="20" y="98" font-size="13" fill="#6e7681">&gt;</text>
<text x="44" y="98" font-size="13" fill="#8b949e">role</text>
<text x="150" y="98" font-size="13" fill="#6e7681">:</text>
<text x="168" y="98" font-size="13" fill="#e6edf3">security researcher · full-stack developer</text>
<text x="20" y="128" font-size="13" fill="#6e7681">&gt;</text>
<text x="44" y="128" font-size="13" fill="#8b949e">focus</text>
<text x="150" y="128" font-size="13" fill="#6e7681">:</text>
<text x="168" y="128" font-size="13" fill="#e6edf3">offensive + defensive security</text>
<text x="20" y="158" font-size="13" fill="#6e7681">&gt;</text>
<text x="44" y="158" font-size="13" fill="#8b949e">reversing</text>
<text x="150" y="158" font-size="13" fill="#6e7681">:</text>
<text x="168" y="158" font-size="13" fill="#e6edf3">malware analysis · RE · vuln research</text>
<text x="20" y="188" font-size="13" fill="#6e7681">&gt;</text>
<text x="44" y="188" font-size="13" fill="#8b949e">mantra</text>
<text x="150" y="188" font-size="13" fill="#6e7681">:</text>
<text x="168" y="188" font-size="13" fill="#f5c518" font-weight="500">break it to understand it — then make it unbreakable</text>

</svg>